<svg width="40" height="40" viewBox="0 0 40 40" fill="none" xmlns="http://www.w3.org/2000/svg">
<path fill-rule="evenodd" clip-rule="evenodd" d="M5 28.1166V15.4283H35V28.2183C35 33.45 31.7069 36.6666 26.438 36.6666H13.5456C8.32602 36.6666 5 33.3833 5 28.1166ZM13.2656 24.0166C12.5082 24.0516 11.8825 23.45 11.8496 22.685C11.8496 21.9183 12.4424 21.285 13.1998 21.25C13.9407 21.25 14.5499 21.835 14.5664 22.5833C14.5993 23.3516 14.0066 23.985 13.2656 24.0166ZM20.0329 24.0166C19.2755 24.0516 18.6498 23.45 18.6169 22.685C18.6169 21.9183 19.2097 21.285 19.9671 21.25C20.708 21.25 21.3172 21.835 21.3337 22.5833C21.3666 23.3516 20.7739 23.985 20.0329 24.0166ZM26.7508 30.15C25.9934 30.1333 25.3842 29.5 25.3842 28.7333C25.3677 27.9666 25.9769 27.3349 26.7344 27.3183H26.7508C27.5247 27.3183 28.1504 27.9516 28.1504 28.7333C28.1504 29.5166 27.5247 30.15 26.7508 30.15ZM18.6169 28.7333C18.6498 29.4999 19.2755 30.1016 20.0329 30.0666C20.7739 30.0349 21.3666 29.4016 21.3337 28.6349C21.3172 27.8849 20.708 27.2999 19.9671 27.2999C19.2097 27.3349 18.6169 27.9666 18.6169 28.7333ZM11.8332 28.7333C11.8661 29.4999 12.4918 30.1016 13.2492 30.0666C13.9901 30.0349 14.5829 29.4016 14.5499 28.6349C14.5335 27.8849 13.9243 27.2999 13.1833 27.2999C12.4259 27.3349 11.8332 27.9666 11.8332 28.7333ZM25.4007 22.6683C25.4007 21.9016 25.9934 21.285 26.7508 21.2683C27.4918 21.2683 28.0845 21.8666 28.1175 22.6016C28.1339 23.3683 27.5412 24.0016 26.8002 24.0166C26.0428 24.0333 25.4171 23.45 25.4007 22.685V22.6683Z" fill="#4D77FF"/>
<path opacity="0.4" d="M5.00562 15.4281C5.02702 14.4498 5.10935 12.5081 5.26412 11.8831C6.05446 8.36813 8.73833 6.1348 12.5748 5.81647H27.4266C31.2301 6.15147 33.9469 8.3998 34.7372 11.8831C34.8904 12.4915 34.9727 14.4481 34.9941 15.4281H5.00562Z" fill="#4D77FF"/>
<path d="M13.8414 10.9833C14.5659 10.9833 15.1093 10.435 15.1093 9.69998V4.61831C15.1093 3.88331 14.5659 3.33331 13.8414 3.33331C13.117 3.33331 12.5736 3.88331 12.5736 4.61831V9.69998C12.5736 10.435 13.117 10.9833 13.8414 10.9833Z" fill="#4D77FF"/>
<path d="M26.1582 10.9833C26.8662 10.9833 27.4261 10.435 27.4261 9.69998V4.61831C27.4261 3.88331 26.8662 3.33331 26.1582 3.33331C25.4337 3.33331 24.8904 3.88331 24.8904 4.61831V9.69998C24.8904 10.435 25.4337 10.9833 26.1582 10.9833Z" fill="#4D77FF"/>
</svg>
