<svg width="40" height="40" viewBox="0 0 40 40" fill="none" xmlns="http://www.w3.org/2000/svg">
<path opacity="0.4" d="M21.6271 5.18938L25.3379 12.6465C25.6113 13.1868 26.1331 13.562 26.7349 13.6453L35.07 14.8593C35.5567 14.9277 35.9985 15.1845 36.2969 15.5763C36.592 15.9632 36.7187 16.4534 36.647 16.9353C36.5886 17.3356 36.4003 17.7057 36.1119 17.9892L30.0722 23.8439C29.6305 24.2524 29.4304 24.8577 29.5371 25.4497L31.0241 33.6805C31.1825 34.6744 30.524 35.6115 29.5371 35.7999C29.1304 35.865 28.7136 35.7966 28.3469 35.6098L20.9119 31.7362C20.3602 31.4577 19.7083 31.4577 19.1566 31.7362L11.7216 35.6098C10.8081 36.0951 9.67619 35.7649 9.16775 34.8645C8.97937 34.5059 8.91269 34.0974 8.97437 33.6989L10.4614 25.4664C10.568 24.8761 10.3663 24.2674 9.92624 23.8589L3.88661 18.0076C3.16813 17.3139 3.14645 16.1716 3.83827 15.4529C3.85327 15.4379 3.86994 15.4212 3.88661 15.4046C4.17334 15.1128 4.55009 14.9277 4.95684 14.8793L13.292 13.6637C13.8921 13.5786 14.4139 13.2068 14.6889 12.6632L18.2664 5.18938C18.5848 4.54905 19.2449 4.15052 19.9617 4.16719H20.1851C20.8069 4.24223 21.3487 4.62742 21.6271 5.18938Z" fill="#4D77FF"/>
<path d="M19.9866 31.5285C19.6638 31.5386 19.3493 31.6253 19.0664 31.7804L11.6678 35.6453C10.7625 36.0773 9.67919 35.742 9.17164 34.8763C8.9836 34.5227 8.91537 34.1173 8.97861 33.7203L10.4563 25.5053C10.5562 24.9081 10.3565 24.301 9.92215 23.8806L3.87981 18.0308C3.16259 17.3286 3.14928 16.176 3.85152 15.457C3.86151 15.447 3.86983 15.4387 3.87981 15.4303C4.16604 15.1468 4.53547 14.96 4.93319 14.9016L13.2753 13.6739C13.8794 13.5972 14.4036 13.2202 14.6698 12.6731L18.2959 5.10522C18.6404 4.49472 19.301 4.13109 19.9999 4.16945C19.9866 4.66486 19.9866 31.1916 19.9866 31.5285Z" fill="#4D77FF"/>
</svg>
